PathFileType	4	(X/Y/Z)	s04c0203.trc
DataRate	CameraRate	NumFrames	NumMarkers	Units	OrigDataRate	OrigDataStartFrame	OrigNumFrames
200	200	5	50	mm	200	1000	2000
Frame#	Time	racr			lacr			c7			jug			rlel			rdr			llel			ldr			s2			lic			ric			lasi			rasi			rpsi			lpsi			rgt			lgt			rth1			rth2			rth3			rth4			rlfc			rmfc			rsh1			rsh2			rsh3			rsh4			rlmal			rmmal			rcal			rtoe			rmt5			lth1			lth2			lth4			lth3			llfc			lmfc			lsh1			lsh2			lsh3			lsh4			llmal			lmmal			lcal			ltoe			lmt5			SBIKE			LBIKE			RBIKE			
		X1	Y1	Z1	X2	Y2	Z2	X3	Y3	Z3	X4	Y4	Z4	X5	Y5	Z5	X6	Y6	Z6	X7	Y7	Z7	X8	Y8	Z8	X9	Y9	Z9	X10	Y10	Z10	X11	Y11	Z11	X12	Y12	Z12	X13	Y13	Z13	X14	Y14	Z14	X15	Y15	Z15	X16	Y16	Z16	X17	Y17	Z17	X18	Y18	Z18	X19	Y19	Z19	X20	Y20	Z20	X21	Y21	Z21	X22	Y22	Z22	X23	Y23	Z23	X24	Y24	Z24	X25	Y25	Z25	X26	Y26	Z26	X27	Y27	Z27	X28	Y28	Z28	X29	Y29	Z29	X30	Y30	Z30	X31	Y31	Z31	X32	Y32	Z32	X33	Y33	Z33	X34	Y34	Z34	X35	Y35	Z35	X36	Y36	Z36	X37	Y37	Z37	X38	Y38	Z38	X39	Y39	Z39	X40	Y40	Z40	X41	Y41	Z41	X42	Y42	Z42	X43	Y43	Z43	X44	Y44	Z44	X45	Y45	Z45	X46	Y46	Z46	X47	Y47	Z47	X48	Y48	Z48	X49	Y49	Z49	X50	Y50	Z50	
1000	5.0000	507.004869	1337.511108	-118.570786	506.310393	1343.443247	-384.132738	475.766596	1408.694670	-256.079126	434.264779	1252.180459	-259.567614	464.907188	1059.593106	43.620258	676.883119	931.891509	-117.015155	470.073136	1118.883937	-579.023768	664.036457	931.553047	-478.122018	-78.505566	1171.980098	-313.730706	87.190634	1180.836021	-458.816907	51.947325	1202.838205	-144.580570	126.913017	1136.400221	-407.948893	109.113465	1169.782476	-178.150681	-57.765102	1221.033922	-274.505837	-50.868526	1218.931972	-348.837740	22.048783	1161.867976	-123.111315	49.524108	1080.209514	-483.111350	161.641848	1093.195986	-110.425881	248.004356	1077.760045	-121.849922	316.445064	1027.177748	-120.616287	258.717267	1107.394016	-142.937758	440.375640	950.384175	-143.528842	425.372452	924.950754	-257.440315	387.527798	844.546752	-117.681238	371.265025	754.855786	-125.871011	312.201105	691.747664	-129.145860	401.163562	742.947412	-147.192956	258.926049	544.100025	-130.777190	280.109835	547.158742	-215.049700	184.868636	520.525067	-167.541778	477.481360	455.867314	-164.986505	409.614922	441.629618	-107.097382	105.204671	999.556622	-490.656767	174.615350	947.982621	-489.534113	201.002850	969.118349	-477.085311	210.290623	866.603052	-494.133539	278.825988	719.147196	-473.312014	304.827099	692.836038	-362.793786	231.519234	604.921467	-489.612217	203.701110	525.776396	-465.223486	139.077193	464.970191	-462.713051	227.586864	515.765189	-435.463781	56.573095	342.241734	-452.987485	57.139624	352.428098	-365.677817	-22.675383	359.394540	-411.588333	226.326049	181.260408	-410.887140	147.636339	191.525668	-472.318075	-184.949431	929.967926	-286.145765	-17.357832	79.449267	-485.312388	-17.403630	79.389390	-84.646507	
1001	5.0050	506.905187	1337.375840	-119.005135	506.188560	1342.338892	-384.491119	475.266431	1408.204320	-256.788450	434.005484	1251.589792	-259.694317	464.460812	1059.825168	43.740619	676.395721	932.040789	-116.776358	468.170345	1117.416134	-578.574273	662.928114	930.797512	-478.162038	-78.672794	1170.706007	-314.084231	87.231847	1179.556909	-458.028587	51.510939	1201.008058	-143.903627	126.892002	1135.445193	-406.977161	109.348663	1169.272488	-177.319423	-57.853489	1219.380664	-274.648620	-51.345926	1217.529536	-348.918465	21.431021	1158.038295	-122.943037	51.112713	1078.975613	-483.094037	161.173443	1084.917574	-110.331395	247.540455	1068.712557	-120.946685	314.662680	1017.015835	-120.329469	259.108081	1098.326548	-141.967011	437.618668	936.710964	-144.394911	421.367443	911.266176	-257.560793	385.856475	829.139165	-117.035438	370.750549	739.259483	-126.013150	312.429888	675.397063	-129.299093	400.512971	728.124537	-148.008735	259.733835	528.625522	-131.151744	279.714193	531.729315	-216.292964	185.615574	500.901202	-167.472248	481.526039	451.699656	-164.923856	414.540093	434.138466	-107.014550	108.012758	999.498062	-490.156409	178.487167	949.238419	-488.501652	204.360487	970.685497	-475.743335	215.819481	868.722865	-493.073305	286.159494	723.379773	-471.871407	311.907408	697.593413	-360.923219	237.078705	610.463770	-488.173701	207.015963	532.122592	-463.738889	140.886943	472.930797	-461.615677	230.270531	521.793709	-433.517344	54.581076	352.828134	-452.406336	55.394949	362.599672	-365.032175	-24.238909	371.836848	-410.957904	219.549371	186.551889	-410.786273	141.095291	199.378341	-472.292943	-184.878942	929.852342	-286.079945	-17.357068	79.357238	-485.300535	-17.410862	79.318941	-84.618165	
1002	5.0100	506.865767	1337.343131	-119.502495	506.179889	1341.343601	-385.075801	474.871801	1407.745358	-257.625681	433.976250	1250.923783	-259.915061	463.952045	1060.191744	43.749721	675.972113	932.465916	-116.715170	466.285080	1115.802300	-577.998353	661.907856	929.943515	-478.253677	-78.752785	1169.230273	-314.335133	87.275299	1178.170802	-457.189635	51.509956	1198.935808	-142.528865	126.921125	1134.348782	-405.905941	109.634072	1168.713567	-176.477565	-58.965019	1218.214291	-274.113324	-51.199121	1215.957435	-349.182596	20.788418	1153.554919	-122.572589	52.735830	1077.649458	-482.982131	160.877088	1076.936990	-109.943670	247.042056	1059.079591	-120.405208	312.678047	1005.602677	-119.689625	259.367811	1088.668003	-140.665388	433.900229	922.682029	-144.962193	416.769379	897.078786	-256.782704	383.643299	813.108419	-116.762296	369.733614	723.044246	-126.669721	312.242650	658.473605	-130.110063	399.383140	712.510360	-149.113426	260.720981	512.236676	-132.423223	280.037403	516.359800	-217.533506	187.335528	481.826352	-168.563906	485.174419	446.430022	-164.371585	418.778734	425.660281	-106.683030	110.751926	999.356739	-489.513130	182.142048	950.452252	-487.665282	207.509850	972.597718	-474.969747	221.061338	870.584825	-491.965487	292.877432	727.490122	-470.433485	316.679225	702.264725	-359.218743	242.366440	616.018471	-486.835926	210.247490	538.535136	-462.355511	142.670560	480.775123	-460.624972	232.761548	527.875187	-431.710799	52.603621	363.344444	-452.008953	53.372194	372.916976	-364.586437	-25.962353	384.261227	-410.722704	213.185468	192.980312	-410.767667	135.088473	207.880030	-472.243773	-184.767438	929.762683	-286.158165	-17.370699	79.295215	-485.318093	-17.416576	79.305989	-84.628323	
1003	5.0150	506.916052	1337.335101	-120.081249	506.200938	1340.462127	-385.739863	474.649628	1407.237279	-258.567694	434.304545	1250.206826	-260.212934	463.238594	1060.588325	43.729400	675.530922	932.997328	-116.550850	464.443330	1114.190421	-577.385441	661.137342	929.129022	-478.620882	-78.567944	1166.780432	-315.764892	87.525854	1176.759588	-456.393683	50.696891	1196.786860	-142.143332	127.144686	1133.225195	-405.172335	109.968847	1168.110430	-175.628519	-59.213525	1216.111359	-274.345775	-51.468280	1213.971360	-349.550673	20.312103	1148.972329	-121.840462	54.363749	1076.209458	-482.756037	160.622679	1068.549881	-109.401601	246.536072	1048.797433	-119.727068	310.913605	993.641942	-120.457943	259.588129	1078.604348	-139.157729	429.644855	908.429272	-145.294861	412.290830	882.696386	-256.908271	381.170828	796.263753	-117.121867	368.200753	706.397601	-127.921734	311.621870	641.069917	-131.326983	397.441400	696.569914	-150.589692	261.494640	496.061639	-133.381039	281.011630	500.885369	-218.319773	189.865517	463.254240	-170.094165	488.491401	439.762209	-163.592326	422.789698	416.532670	-106.373232	113.358039	999.196595	-488.825440	185.544321	951.532394	-486.821562	210.545270	974.529484	-474.904972	225.871397	872.372017	-490.829924	299.002247	731.534341	-468.974701	320.946568	706.692399	-357.388793	247.390506	621.553328	-485.494183	213.132732	544.867957	-461.083672	144.191281	488.902025	-459.928181	235.176293	533.651766	-429.878690	50.549548	373.772644	-451.789409	51.109096	383.426000	-364.326682	-27.798937	396.370993	-410.732390	206.559926	199.350652	-410.137859	129.683105	216.758336	-472.201531	-184.437181	929.810777	-286.886594	-17.381307	79.213384	-485.354836	-17.412191	79.256573	-84.656024	
1004	5.0200	507.053013	1337.385090	-120.657366	506.340554	1339.715867	-386.462277	474.516717	1406.757829	-259.550892	434.506932	1249.852360	-260.681098	462.514555	1061.039655	43.658328	675.069128	933.601092	-116.246265	462.640626	1112.582466	-576.706671	660.540515	928.374074	-478.985279	-78.870099	1164.367136	-316.785622	87.584069	1175.219898	-455.445467	50.372966	1194.631509	-141.144341	127.237474	1131.957821	-404.069109	110.352150	1167.467548	-174.775661	-59.315046	1213.679337	-274.273196	-52.174278	1212.317372	-349.389030	19.899664	1143.859445	-121.109842	55.967247	1074.841977	-482.483261	160.768346	1059.979731	-108.873064	245.944367	1038.414476	-118.972778	309.027492	981.932499	-120.455664	259.822837	1068.373625	-137.351678	425.349575	893.848038	-145.266926	407.842801	868.227722	-256.592916	378.456713	779.498337	-116.921767	366.398991	689.576448	-129.280476	310.865116	623.620769	-132.478613	395.943067	680.410801	-152.414594	262.951637	479.969248	-134.105772	282.646389	485.945015	-219.028493	192.300576	446.065935	-170.622747	491.522507	432.332857	-163.325008	426.359999	406.838555	-106.234401	115.695885	999.378788	-488.981928	188.697450	952.613747	-486.158359	213.341662	975.773575	-474.111276	230.290765	874.054902	-489.768005	304.744198	735.423587	-467.562370	325.835836	710.671852	-355.764689	251.903271	626.927818	-484.297356	215.635374	551.224084	-460.042909	145.211072	497.162462	-459.393539	237.072479	539.543077	-428.494796	48.419951	384.188356	-451.597996	48.894214	393.885887	-364.067289	-29.983785	408.363825	-410.464773	201.294832	207.275840	-410.112313	124.689944	225.975581	-472.158417	-184.470116	929.767374	-287.205168	-17.390056	79.113576	-485.403272	-17.410191	79.230895	-84.688108	
